#!OML:ASF G:\JayActor3\Patient Classification 1\Patient 1\Session 6\male.ASF
:FULLY-SPECIFIED
:DEGREES
1792
root 2.99949 15.908 -22.7078 532.278 -36.8652 -537.631
lowerback -3.45624 -0.548863 2.94081
upperback 0.100977 -0.901107 1.18965
thorax 2.01618 -0.435869 -0.473677
lowerneck 1.36185 4.59316 -1.54277
upperneck 21.7701 2.5729 12.0744
head 6.1112 1.31659 4.19303
rclavicle 5.03919e-014 3.29983e-014
rhumerus -38.5187 -23.0854 -77.3484
rradius 127.384
rwrist 21.2224
rhand 0.902407 -29.7805
rfingers 7.12502
rthumb 26.4544 -57.9542
lclavicle 5.03919e-014 3.29983e-014
lhumerus -38.5326 37.066 57.0932
lradius 81.052
lwrist 31.8843
lhand -23.596 9.15492
lfingers 7.12502
lthumb 2.86752 39.1154
rfemur -22.0666 13.1234 19.629
rtibia 52.7939
rfoot -19.3515 1.96571
rtoes -14.4909
lfemur 1.44854 25.0876 -17.4074
ltibia 29.8473
lfoot -24.3302 -5.47149
ltoes 0.917411
1793
root 3.00742 15.91 -22.7169 532.176 -37.166 -537.373
lowerback -3.37213 -0.586436 2.94302
upperback 0.0701738 -0.947904 1.20929
thorax 1.93625 -0.460752 -0.455825
lowerneck 1.52391 4.51937 -1.69615
upperneck 21.3771 2.46451 12.4606
head 5.95253 1.26912 4.32559
rclavicle -2.94698e-014 -4.09496e-014
rhumerus -38.6352 -22.9286 -77.2744
rradius 127.309
rwrist 21.04
rhand 0.739002 -29.7564
rfingers 7.12502
rthumb 26.298 -57.9535
lclavicle -2.94698e-014 -4.09496e-014
lhumerus -37.9295 36.7534 57.5397
lradius 82.0452
lwrist 31.7639
lhand -23.626 9.35638
lfingers 7.12502
lthumb 2.83856 39.3172
rfemur -21.8432 13.5079 19.9811
rtibia 52.511
rfoot -19.3898 2.18206
rtoes -13.9651
lfemur 1.25632 24.9047 -17.1835
ltibia 30.0429
lfoot -24.3483 -5.72949
ltoes 1.24917
1794
root 3.01542 15.912 -22.7264 532.071 -37.4807 -537.117
lowerback -3.28635 -0.623834 2.94791
upperback 0.0412934 -0.994262 1.22307
thorax 1.85725 -0.485271 -0.44531
lowerneck 1.69144 4.44278 -1.84462
upperneck 20.9746 2.35401 12.8511
head 5.79125 1.21941 4.45839
rclavicle 6.50523e-014 2.70347e-014
rhumerus -38.7456 -22.7848 -77.2122
rradius 127.236
rwrist 20.86
rhand 0.565237 -29.7312
rfingers 7.12502
rthumb 26.1317 -57.953
lclavicle 6.50523e-014 2.70347e-014
lhumerus -37.3166 36.4273 57.9911
lradius 83.02
lwrist 31.6734
lhand -23.6722 9.57689
lfingers 7.12502
lthumb 2.7939 39.5383
rfemur -21.6048 13.868 20.3298
rtibia 52.2052
rfoot -19.4408 2.23298
rtoes -13.4664
lfemur 1.07469 24.7136 -16.9616
ltibia 30.2222
lfoot -24.3531 -6.00552
ltoes 1.61626
1795
root 3.02311 15.9141 -22.7362 531.97 -37.8117 -536.886
lowerback -3.19601 -0.663323 2.93585
upperback 0.0172396 -1.04214 1.22727
thorax 1.78075 -0.510435 -0.435034
lowerneck 1.85894 4.36465 -1.99396
upperneck 20.5692 2.24156 13.2501
head 5.63015 1.16747 4.59423
rclavicle -2.48729e-014 -1.15295e-014
rhumerus -38.8521 -22.6438 -77.1608
rradius 127.164
rwrist 20.6933
rhand 0.371083 -29.7027
rfingers 7.12502
rthumb 25.9458 -57.9519
lclavicle -2.48729e-014 -1.15295e-014
lhumerus -36.6962 36.0899 58.4492
lradius 83.9787
lwrist 31.6252
lhand -23.754 9.74031
lfingers 7.12502
lthumb 2.71493 39.7028
rfemur -21.345 14.195 20.6533
rtibia 51.8827
rfoot -19.5168 2.08411
rtoes -13.0468
lfemur 0.923805 24.5183 -16.7573
ltibia 30.3667
lfoot -24.3405 -6.30069
ltoes 2.01262
1796
root 3.02978 15.9163 -22.7469 531.884 -38.1622 -536.714
lowerback -3.11433 -0.704067 2.88723
upperback 0.0127419 -1.09011 1.21129
thorax 1.72947 -0.535052 -0.425147
lowerneck 2.01362 4.28175 -2.14557
upperneck 20.1598 2.12306 13.6604
head 5.47136 1.11203 4.73439
rclavicle 7.37988e-014 5.96354e-016
rhumerus -38.933 -22.5187 -77.1304
rradius 127.092
rwrist 20.5474
rhand 0.183084 -29.6711
rfingers 7.12502
rthumb 25.7657 -57.9466
lclavicle 7.37988e-014 5.96354e-016
lhumerus -36.052 35.7368 58.9273
lradius 84.9252
lwrist 31.608
lhand -23.8836 9.8186
lfingers 7.12502
lthumb 2.58974 39.7826
rfemur -21.0523 14.5056 20.923
rtibia 51.5502
rfoot -19.6316 1.73432
rtoes -12.6649
lfemur 0.826094 24.3219 -16.5954
ltibia 30.4678
lfoot -24.3141 -6.61297
ltoes 2.4234
1797
root 3.0359 15.919 -22.7582 531.803 -38.529 -536.564
lowerback -3.02958 -0.748142 2.82186
upperback 0.00839099 -1.14157 1.18885
thorax 1.67676 -0.561435 -0.412487
lowerneck 2.16957 4.19651 -2.29628
upperneck 19.7556 2.0011 14.0724
head 5.31546 1.05312 4.87534
rclavicle -6.38596e-015 -2.14687e-014
rhumerus -39.0115 -22.3982 -77.1076
rradius 127.022
rwrist 20.4248
rhand 0.00180901 -29.6327
rfingers 7.12502
rthumb 25.5921 -57.9332
lclavicle -6.38596e-015 -2.14687e-014
lhumerus -35.4155 35.3596 59.4118
lradius 85.8636
lwrist 31.5822
lhand -24.0762 9.78216
lfingers 7.12502
lthumb 2.40381 39.7484
rfemur -20.7445 14.8045 21.1694
rtibia 51.2082
rfoot -19.7745 1.17977
rtoes -12.362
lfemur 0.763224 24.1111 -16.4526
ltibia 30.5232
lfoot -24.2682 -6.92976
ltoes 2.84573
